{"title":"12032016.MySistersHotFriend.Anny.Aurora.1080p.x265.HEVC.MAjUS","uid":13874204,"size":322276178,"categoryP":"porn","categoryS":"hd___movies","magnet":"?xt=urn:btih:73fc16a0ea75f28148ef46376f42ea4704f381d6&amp;dn=12032016.MySistersHotFriend.Anny.Aurora.1080p.x265.HEVC.MAjUS&amp;tr=udp%3A%2F%2Ftracker.leechers-paradise.org%3A6969&amp;tr=udp%3A%2F%2Fzer0day.ch%3A1337&amp;tr=udp%3A%2F%2Fopen.demonii.com%3A1337&amp;tr=udp%3A%2F%2Ftracker.coppersurfer.tk%3A6969&amp;tr=udp%3A%2F%2Fexodus.desync.com%3A6969","seeders":0,"leechers":1,"uploader":"MAjUS-HEVC","files":1,"time":1458120383,"description":"http://imgfapper.com/img-56e41abd6676a.html\r\n\r\nFormat                      : Matroska\r\nFormat version              : Version 4 / Version 2\r\nFile size                   : 307 MiB\r\nDuration                    : 31mn 22s\r\nOverall bit rate            : 1 369 Kbps\r\nEncoded date                : UTC 2016-03-16 04:59:31\r\nWriting application         : mkvmerge v8.6.1 ('Flying') 32bit\r\nWriting library             : libebml v1.3.3 + libmatroska v1.4.4\r\n\r\nVideo\r\nID                          : 1\r\nFormat                      : HEVC\r\nFormat/Info                 : High Efficiency Video Coding\r\nFormat profile              :   @Main\r\nCodec ID                    : V_MPEGH/ISO/HEVC\r\nDuration                    : 31mn 22s\r\nBit rate                    : 1 328 Kbps\r\nWidth                       : 1 920 pixels\r\nHeight                      : 1 080 pixels\r\nDisplay aspect ratio        : 16:9\r\nFrame rate mode             : Constant\r\nFrame rate                  : 24.000 fps\r\nColor space                 : YUV\r\nChroma subsampling          : 4:2:0\r\nBit depth                   : 8 bits\r\nBits/(Pixel*Frame)          : 0.027\r\nStream size                 : 298 MiB (97%)\r\n\r\nAudio\r\nID                          : 2\r\nFormat                      : AAC\r\nFormat/Info                 : Advanced Audio Codec\r\nFormat profile              : LC\r\nCodec ID                    : A_AAC\r\nDuration                    : 31mn 22s\r\nBit rate                    : 40.0 Kbps\r\nChannel(s)                  : 2 channels\r\nChannel positions           : Front: L R\r\nSampling rate               : 48.0 KHz\r\nFrame rate                  : 46.875 fps (1024 spf)\r\nCompression mode            : Lossy\r\nDelay relative to video     : 9ms\r\nStream size                 : 8.98 MiB (3%)\r\nDefault                     : Yes\r\nForced                      : No","torrent":{"xt":"urn:btih:73fc16a0ea75f28148ef46376f42ea4704f381d6","amp;dn":"12032016.MySistersHotFriend.Anny.Aurora.1080p.x265.HEVC.MAjUS","amp;tr":["udp%3A%2F%2Ftracker.leechers-paradise.org%3A6969","udp%3A%2F%2Fzer0day.ch%3A1337","udp%3A%2F%2Fopen.demonii.com%3A1337","udp%3A%2F%2Ftracker.coppersurfer.tk%3A6969","udp%3A%2F%2Fexodus.desync.com%3A6969"],"infoHash":"73fc16a0ea75f28148ef46376f42ea4704f381d6","infoHashBuffer":{"type":"Buffer","data":[115,252,22,160,234,117,242,129,72,239,70,55,111,66,234,71,4,243,129,214]},"announce":[],"urlList":[]}}